<?xml version="1.0" standalone="no"?>
<!DOCTYPE svg PUBLIC "-//W3C//DTD SVG 20010904//EN"
 "http://www.w3.org/TR/2001/REC-SVG-20010904/DTD/svg10.dtd">
<svg version="1.0" xmlns="http://www.w3.org/2000/svg"
 width="1024.000000pt" height="1024.000000pt" viewBox="0 0 1024.000000 1024.000000"
 preserveAspectRatio="xMidYMid meet">
<metadata>
Created by potrace 1.14, written by Peter Selinger 2001-2017
</metadata>
<g transform="translate(0.000000,1024.000000) scale(0.100000,-0.100000)"
fill="#000000" stroke="none">
<path d="M4955 5970 c-648 -1111 -1181 -2020 -1184 -2020 -3 1 -235 393 -516
873 -280 480 -649 1109 -818 1400 l-309 527 -484 0 c-266 0 -484 -2 -484 -5 0
-3 112 -197 248 -432 137 -236 725 -1248 1306 -2251 582 -1002 1061 -1822
1065 -1822 3 0 443 757 978 1683 534 925 1280 2216 1657 2869 377 653 686
1190 686 1193 0 3 -217 5 -483 5 l-484 0 -1178 -2020z"/>
<path d="M8043 7663 c-105 -181 -637 -1092 -1182 -2027 l-990 -1698 -18 30
c-10 16 -112 192 -228 390 -115 198 -214 357 -218 353 -4 -5 -115 -194 -246
-421 l-239 -413 48 -81 c39 -66 432 -745 823 -1419 64 -111 82 -136 92 -125 7
7 125 209 262 448 138 239 768 1331 1400 2425 913 1579 1608 2784 1650 2858 2
4 -213 7 -479 7 l-484 0 -191 -327z"/>
<path d="M3260 6746 c0 -7 960 -1659 969 -1669 5 -5 117 179 250 408 l242 416
-248 424 -248 425 -482 0 c-266 0 -483 -2 -483 -4z"/>
</g>
</svg>
